<?xml version="1.0" encoding="UTF-8" standalone="no"?>
<svg
   viewBox="0 0 32 32"
   version="1.1"
   id="svg150"
   sodipodi:docname="chen_yefet_purple_pink_python_logo.svg"
   inkscape:version="1.2.2 (732a01da63, 2022-12-09)"
   xmlns:inkscape="http://www.inkscape.org/namespaces/inkscape"
   xmlns:sodipodi="http://sodipodi.sourceforge.net/DTD/sodipodi-0.dtd"
   xmlns="http://www.w3.org/2000/svg"
   xmlns:svg="http://www.w3.org/2000/svg"
   xmlns:rdf="http://www.w3.org/1999/02/22-rdf-syntax-ns#"
   xmlns:cc="http://creativecommons.org/ns#"
   xmlns:dc="http://purl.org/dc/elements/1.1/">
  <sodipodi:namedview
     id="namedview152"
     pagecolor="#ffffff"
     bordercolor="#000000"
     borderopacity="0.25"
     inkscape:showpageshadow="2"
     inkscape:pageopacity="0.0"
     inkscape:pagecheckerboard="0"
     inkscape:deskcolor="#d1d1d1"
     showgrid="false"
     inkscape:zoom="24.25"
     inkscape:cx="9.2164948"
     inkscape:cy="16"
     inkscape:window-width="1920"
     inkscape:window-height="974"
     inkscape:window-x="-11"
     inkscape:window-y="-11"
     inkscape:window-maximized="1"
     inkscape:current-layer="svg150" />
  <defs
     id="defs142">
    <linearGradient
       id="a"
       x1="-133.268"
       y1="-202.91"
       x2="-133.198"
       y2="-202.84"
       gradientTransform="translate(25243.061 38519.17) scale(189.38 189.81)"
       gradientUnits="userSpaceOnUse">
      <stop
         offset="0"
         stop-color="#387eb8"
         id="stop132"
         style="stop-color:#3c005c;stop-opacity:1;" />
      <stop
         offset="1"
         stop-color="#366994"
         id="stop134"
         style="stop-color:#aa00ff;stop-opacity:1;" />
    </linearGradient>
    <linearGradient
       id="b"
       x1="-133.575"
       y1="-203.203"
       x2="-133.495"
       y2="-203.133"
       gradientTransform="translate(25309.061 38583.42) scale(189.38 189.81)"
       gradientUnits="userSpaceOnUse">
      <stop
         offset="0"
         stop-color="#ffe052"
         id="stop137"
         style="stop-color:#ff00dd;stop-opacity:1;" />
      <stop
         offset="1"
         stop-color="#ffc331"
         id="stop139"
         style="stop-color:#5c004f;stop-opacity:1;" />
    </linearGradient>
  </defs>
  <title
     id="title144">file_type_python</title>
  <path
     d="M15.885,2.1c-7.1,0-6.651,3.07-6.651,3.07V8.36h6.752v1H6.545S2,8.8,2,16.005s4.013,6.912,4.013,6.912H8.33V19.556s-.13-4.013,3.9-4.013h6.762s3.772.06,3.772-3.652V5.8s.572-3.712-6.842-3.712h0ZM12.153,4.237a1.214,1.214,0,1,1-1.183,1.244v-.02a1.214,1.214,0,0,1,1.214-1.214h0Z"
     style="fill:url(#a)"
     id="path146" />
  <path
     d="M16.085,29.91c7.1,0,6.651-3.08,6.651-3.08V23.65H15.985v-1h9.47S30,23.158,30,15.995s-4.013-6.912-4.013-6.912H23.64V12.4s.13,4.013-3.9,4.013H12.975S9.2,16.356,9.2,20.068V26.2s-.572,3.712,6.842,3.712h.04Zm3.732-2.147A1.214,1.214,0,1,1,21,26.519v.03a1.214,1.214,0,0,1-1.214,1.214h.03Z"
     style="fill:url(#b)"
     id="path148" />
  <metadata
     id="metadata15243">
    <rdf:RDF>
      <cc:Work
         rdf:about="">
        <dc:title>file_type_python</dc:title>
      </cc:Work>
    </rdf:RDF>
  </metadata>
</svg>
