<?xml version="1.0" encoding="UTF-8" standalone="no"?>
<svg
   viewBox="0 0 32 32"
   version="1.1"
   id="svg12"
   sodipodi:docname="chen_yefet_vscode_folder.svg"
   inkscape:version="1.2.2 (732a01da63, 2022-12-09)"
   xmlns:inkscape="http://www.inkscape.org/namespaces/inkscape"
   xmlns:sodipodi="http://sodipodi.sourceforge.net/DTD/sodipodi-0.dtd"
   xmlns:xlink="http://www.w3.org/1999/xlink"
   xmlns="http://www.w3.org/2000/svg"
   xmlns:svg="http://www.w3.org/2000/svg"
   xmlns:rdf="http://www.w3.org/1999/02/22-rdf-syntax-ns#"
   xmlns:cc="http://creativecommons.org/ns#"
   xmlns:dc="http://purl.org/dc/elements/1.1/">
  <defs
     id="defs16">
    <linearGradient
       inkscape:collect="always"
       id="linearGradient6325">
      <stop
         style="stop-color:#8800cc;stop-opacity:1;"
         offset="0"
         id="stop6321" />
      <stop
         style="stop-color:#ff00dd;stop-opacity:1;"
         offset="1"
         id="stop6323" />
    </linearGradient>
    <linearGradient
       inkscape:collect="always"
       id="linearGradient4123">
      <stop
         style="stop-color:#7000a8;stop-opacity:1;"
         offset="0"
         id="stop4119" />
      <stop
         style="stop-color:#00ffff;stop-opacity:1;"
         offset="1"
         id="stop4121" />
    </linearGradient>
    <linearGradient
       inkscape:collect="always"
       id="linearGradient1898">
      <stop
         style="stop-color:#69009e;stop-opacity:1;"
         offset="0"
         id="stop1894" />
      <stop
         style="stop-color:#aa00ff;stop-opacity:1;"
         offset="1"
         id="stop1896" />
    </linearGradient>
    <linearGradient
       inkscape:collect="always"
       id="linearGradient2372">
      <stop
         style="stop-color:#ff00dd;stop-opacity:1;"
         offset="0"
         id="stop2368" />
      <stop
         style="stop-color:#72005d;stop-opacity:1;"
         offset="1"
         id="stop2370" />
    </linearGradient>
    <radialGradient
       inkscape:collect="always"
       xlink:href="#linearGradient2372"
       id="radialGradient2374"
       cx="17"
       cy="16"
       fx="17"
       fy="16"
       r="12.6"
       gradientTransform="matrix(1,0,0,0.83333333,0,2.6666667)"
       gradientUnits="userSpaceOnUse" />
    <linearGradient
       inkscape:collect="always"
       xlink:href="#linearGradient1898"
       id="linearGradient1900"
       x1="24.442"
       y1="20.560291"
       x2="31"
       y2="20.560291"
       gradientUnits="userSpaceOnUse" />
    <linearGradient
       inkscape:collect="always"
       xlink:href="#linearGradient4123"
       id="linearGradient4125"
       x1="9.9996231"
       y1="18.05231"
       x2="31"
       y2="18.05231"
       gradientUnits="userSpaceOnUse" />
    <linearGradient
       inkscape:collect="always"
       xlink:href="#linearGradient6325"
       id="linearGradient6327"
       x1="9.9996231"
       y1="23.06869"
       x2="31"
       y2="23.06869"
       gradientUnits="userSpaceOnUse" />
  </defs>
  <sodipodi:namedview
     id="namedview14"
     pagecolor="#ffffff"
     bordercolor="#000000"
     borderopacity="0.25"
     inkscape:showpageshadow="2"
     inkscape:pageopacity="0.0"
     inkscape:pagecheckerboard="0"
     inkscape:deskcolor="#d1d1d1"
     showgrid="false"
     inkscape:zoom="24.25"
     inkscape:cx="6.3298969"
     inkscape:cy="18.969072"
     inkscape:window-width="1920"
     inkscape:window-height="974"
     inkscape:window-x="-11"
     inkscape:window-y="-11"
     inkscape:window-maximized="1"
     inkscape:current-layer="svg12" />
  <title
     id="title2">folder_type_vscode</title>
  <path
     d="M27.5,5.5H18.2L16.1,9.7H4.4V26.5H29.6V5.5Zm0,4.2H19.3l1.1-2.1h7.1Z"
     style="fill:url(#radialGradient2374);fill-opacity:1"
     id="path4" />
  <path
     d="M30.257,12.333l-4.324-2.082a1.308,1.308,0,0,0-1.492.253L10.285,23.411a.875.875,0,0,0-.057,1.236.766.766,0,0,0,.057.057l1.157,1.052a.873.873,0,0,0,1.116.049L29.607,12.873A.868.868,0,0,1,31,13.565v-.05A1.311,1.311,0,0,0,30.257,12.333Z"
     style="fill:url(#linearGradient4125);fill-opacity:1"
     id="path6" />
  <path
     d="M30.257,28.788,25.933,30.87a1.308,1.308,0,0,1-1.492-.253L10.285,17.71a.875.875,0,0,1-.057-1.236.766.766,0,0,1,.057-.057l1.157-1.052a.873.873,0,0,1,1.116-.049L29.607,28.248A.868.868,0,0,0,31,27.556v.05A1.311,1.311,0,0,1,30.257,28.788Z"
     style="fill:url(#linearGradient6327);fill-opacity:1"
     id="path8" />
  <path
     d="M25.933,30.871a1.308,1.308,0,0,1-1.491-.254.768.768,0,0,0,1.311-.543V11.047a.768.768,0,0,0-1.311-.543,1.306,1.306,0,0,1,1.491-.254l4.324,2.079A1.314,1.314,0,0,1,31,13.512v14.1a1.314,1.314,0,0,1-.743,1.183Z"
     style="fill:url(#linearGradient1900);fill-opacity:1"
     id="path10" />
  <metadata
     id="metadata8569">
    <rdf:RDF>
      <cc:Work
         rdf:about="">
        <dc:title>folder_type_vscode</dc:title>
      </cc:Work>
    </rdf:RDF>
  </metadata>
</svg>
