<?xml version="1.0" encoding="UTF-8" standalone="no"?>
<svg
   viewBox="0 0 32 32"
   version="1.1"
   id="svg8"
   sodipodi:docname="chen_yefet_turquoise_json_logo.svg"
   inkscape:version="1.2.2 (732a01da63, 2022-12-09)"
   xmlns:inkscape="http://www.inkscape.org/namespaces/inkscape"
   xmlns:sodipodi="http://sodipodi.sourceforge.net/DTD/sodipodi-0.dtd"
   xmlns:xlink="http://www.w3.org/1999/xlink"
   xmlns="http://www.w3.org/2000/svg"
   xmlns:svg="http://www.w3.org/2000/svg"
   xmlns:rdf="http://www.w3.org/1999/02/22-rdf-syntax-ns#"
   xmlns:cc="http://creativecommons.org/ns#"
   xmlns:dc="http://purl.org/dc/elements/1.1/">
  <defs
     id="defs12">
    <linearGradient
       inkscape:collect="always"
       id="linearGradient10945">
      <stop
         style="stop-color:#a601ff;stop-opacity:1;"
         offset="0"
         id="stop10943" />
      <stop
         style="stop-color:#00ffb3;stop-opacity:1;"
         offset="1"
         id="stop10941" />
    </linearGradient>
    <linearGradient
       inkscape:collect="always"
       id="linearGradient8031">
      <stop
         style="stop-color:#00ffb3;stop-opacity:1;"
         offset="0"
         id="stop8027" />
      <stop
         style="stop-color:#a601ff;stop-opacity:1;"
         offset="1"
         id="stop8029" />
    </linearGradient>
    <linearGradient
       id="linearGradient6043"
       inkscape:swatch="gradient">
      <stop
         style="stop-color:#00ffff;stop-opacity:1;"
         offset="0"
         id="stop6039" />
      <stop
         style="stop-color:#00ffff;stop-opacity:0;"
         offset="1"
         id="stop6041" />
    </linearGradient>
    <linearGradient
       id="linearGradient5279"
       inkscape:swatch="gradient">
      <stop
         style="stop-color:#00ffff;stop-opacity:1;"
         offset="0"
         id="stop5275" />
      <stop
         style="stop-color:#00ffff;stop-opacity:0;"
         offset="1"
         id="stop5277" />
    </linearGradient>
    <linearGradient
       inkscape:collect="always"
       xlink:href="#linearGradient8031"
       id="linearGradient8035"
       x1="4.0139999"
       y1="16.001047"
       x2="11.244"
       y2="16.001047"
       gradientUnits="userSpaceOnUse" />
    <linearGradient
       inkscape:collect="always"
       xlink:href="#linearGradient10945"
       id="linearGradient10947"
       x1="20.755"
       y1="16.000605"
       x2="27.986"
       y2="16.000605"
       gradientUnits="userSpaceOnUse" />
  </defs>
  <sodipodi:namedview
     id="namedview10"
     pagecolor="#ffffff"
     bordercolor="#000000"
     borderopacity="0.25"
     inkscape:showpageshadow="2"
     inkscape:pageopacity="0.0"
     inkscape:pagecheckerboard="0"
     inkscape:deskcolor="#d1d1d1"
     showgrid="false"
     inkscape:zoom="24.25"
     inkscape:cx="11.443299"
     inkscape:cy="16.948454"
     inkscape:window-width="1920"
     inkscape:window-height="974"
     inkscape:window-x="-11"
     inkscape:window-y="-11"
     inkscape:window-maximized="1"
     inkscape:current-layer="svg8" />
  <title
     id="title2">file_type_json</title>
  <path
     d="M4.014,14.976a2.51,2.51,0,0,0,1.567-.518A2.377,2.377,0,0,0,6.386,13.1,15.261,15.261,0,0,0,6.6,10.156q.012-2.085.075-2.747a5.236,5.236,0,0,1,.418-1.686,3.025,3.025,0,0,1,.755-1.018A3.046,3.046,0,0,1,9,4.125,6.762,6.762,0,0,1,10.544,4h.7V5.96h-.387a2.338,2.338,0,0,0-1.723.468A3.4,3.4,0,0,0,8.709,8.52a36.054,36.054,0,0,1-.137,4.133,4.734,4.734,0,0,1-.768,2.06A4.567,4.567,0,0,1,6.1,16a3.809,3.809,0,0,1,1.992,1.754,8.861,8.861,0,0,1,.618,3.865q0,2.435.05,2.9A1.755,1.755,0,0,0,9.264,25.7a2.639,2.639,0,0,0,1.592.337h.387V28h-.7a5.655,5.655,0,0,1-1.773-.2,2.97,2.97,0,0,1-1.324-.93,3.353,3.353,0,0,1-.681-1.63A24.175,24.175,0,0,1,6.6,22.006,16.469,16.469,0,0,0,6.386,18.9a2.408,2.408,0,0,0-.805-1.361,2.489,2.489,0,0,0-1.567-.524Z"
     style="fill:url(#linearGradient8035);fill-opacity:1"
     id="path4" />
  <path
     d="M27.986,17.011a2.489,2.489,0,0,0-1.567.524,2.408,2.408,0,0,0-.805,1.361,16.469,16.469,0,0,0-.212,3.109,24.175,24.175,0,0,1-.169,3.234,3.353,3.353,0,0,1-.681,1.63,2.97,2.97,0,0,1-1.324.93,5.655,5.655,0,0,1-1.773.2h-.7V26.04h.387a2.639,2.639,0,0,0,1.592-.337,1.755,1.755,0,0,0,.506-1.186q.05-.462.05-2.9a8.861,8.861,0,0,1,.618-3.865A3.809,3.809,0,0,1,25.9,16a4.567,4.567,0,0,1-1.7-1.286,4.734,4.734,0,0,1-.768-2.06,36.054,36.054,0,0,1-.137-4.133,3.4,3.4,0,0,0-.425-2.092,2.338,2.338,0,0,0-1.723-.468h-.387V4h.7A6.762,6.762,0,0,1,23,4.125a3.046,3.046,0,0,1,1.149.581,3.025,3.025,0,0,1,.755,1.018,5.236,5.236,0,0,1,.418,1.686q.062.662.075,2.747a15.261,15.261,0,0,0,.212,2.947,2.377,2.377,0,0,0,.805,1.355,2.51,2.51,0,0,0,1.567.518Z"
     style="fill:url(#linearGradient10947);fill-opacity:1"
     id="path6"
     inkscape:label="path6" />
  <metadata
     id="metadata11314">
    <rdf:RDF>
      <cc:Work
         rdf:about="">
        <dc:title>file_type_json</dc:title>
      </cc:Work>
    </rdf:RDF>
  </metadata>
</svg>
