<?xml version="1.0" encoding="UTF-8" standalone="no"?>
<svg
   viewBox="0 0 32 32"
   version="1.1"
   id="svg290"
   sodipodi:docname="chen_yefet_database_folder_opened.svg"
   inkscape:version="1.2.2 (732a01da63, 2022-12-09)"
   xmlns:inkscape="http://www.inkscape.org/namespaces/inkscape"
   xmlns:sodipodi="http://sodipodi.sourceforge.net/DTD/sodipodi-0.dtd"
   xmlns:xlink="http://www.w3.org/1999/xlink"
   xmlns="http://www.w3.org/2000/svg"
   xmlns:svg="http://www.w3.org/2000/svg"
   xmlns:rdf="http://www.w3.org/1999/02/22-rdf-syntax-ns#"
   xmlns:cc="http://creativecommons.org/ns#"
   xmlns:dc="http://purl.org/dc/elements/1.1/">
  <defs
     id="defs294">
    <linearGradient
       inkscape:collect="always"
       id="linearGradient15264">
      <stop
         style="stop-color:#7000a8;stop-opacity:1;"
         offset="0"
         id="stop15260" />
      <stop
         style="stop-color:#cc00b1;stop-opacity:1;"
         offset="1"
         id="stop15262" />
    </linearGradient>
    <linearGradient
       inkscape:collect="always"
       id="linearGradient14492">
      <stop
         style="stop-color:#8800cc;stop-opacity:1;"
         offset="0"
         id="stop14488" />
      <stop
         style="stop-color:#ff00dd;stop-opacity:1;"
         offset="1"
         id="stop14490" />
    </linearGradient>
    <linearGradient
       inkscape:collect="always"
       id="linearGradient30840">
      <stop
         style="stop-color:#00ffff;stop-opacity:1;"
         offset="0"
         id="stop30836" />
      <stop
         style="stop-color:#00b8b8;stop-opacity:1;"
         offset="1"
         id="stop30838" />
    </linearGradient>
    <linearGradient
       inkscape:collect="always"
       id="linearGradient30832">
      <stop
         style="stop-color:#00ffff;stop-opacity:1;"
         offset="0"
         id="stop30828" />
      <stop
         style="stop-color:#00b8b8;stop-opacity:1;"
         offset="1"
         id="stop30830" />
    </linearGradient>
    <linearGradient
       inkscape:collect="always"
       id="linearGradient30824">
      <stop
         style="stop-color:#00ffff;stop-opacity:1;"
         offset="0"
         id="stop30820" />
      <stop
         style="stop-color:#00b8b8;stop-opacity:1;"
         offset="1"
         id="stop30822" />
    </linearGradient>
    <linearGradient
       inkscape:collect="always"
       id="linearGradient18419">
      <stop
         style="stop-color:#00ffff;stop-opacity:1;"
         offset="0"
         id="stop18415" />
      <stop
         style="stop-color:#00b8b8;stop-opacity:1;"
         offset="1"
         id="stop18417" />
    </linearGradient>
    <radialGradient
       inkscape:collect="always"
       xlink:href="#linearGradient18419"
       id="radialGradient18421"
       cx="23.4"
       cy="12.921"
       fx="23.4"
       fy="12.921"
       r="7.4720001"
       gradientTransform="matrix(1,0,0,0.39092612,0,7.8698433)"
       gradientUnits="userSpaceOnUse" />
    <radialGradient
       inkscape:collect="always"
       xlink:href="#linearGradient30824"
       id="radialGradient30826"
       cx="23.4"
       cy="18.307564"
       fx="23.4"
       fy="18.307564"
       r="7.472"
       gradientTransform="matrix(1,0,0,0.33894062,0,12.102387)"
       gradientUnits="userSpaceOnUse" />
    <radialGradient
       inkscape:collect="always"
       xlink:href="#linearGradient30832"
       id="radialGradient30834"
       cx="23.402996"
       cy="28.476"
       fx="23.402996"
       fy="28.476"
       r="7.469004"
       gradientTransform="matrix(1,0,0,0.33792993,0,18.853107)"
       gradientUnits="userSpaceOnUse" />
    <radialGradient
       inkscape:collect="always"
       xlink:href="#linearGradient30840"
       id="radialGradient30842"
       cx="23.403964"
       cy="23.395689"
       fx="23.403964"
       fy="23.395689"
       r="7.4690364"
       gradientTransform="matrix(1,0,0,0.33079081,0,15.65661)"
       gradientUnits="userSpaceOnUse" />
    <linearGradient
       inkscape:collect="always"
       xlink:href="#linearGradient15264"
       id="linearGradient14496"
       gradientUnits="userSpaceOnUse"
       x1="0.5"
       y1="16"
       x2="29.5"
       y2="16" />
    <linearGradient
       inkscape:collect="always"
       xlink:href="#linearGradient14492"
       id="linearGradient14498"
       gradientUnits="userSpaceOnUse"
       x1="0.5"
       y1="16"
       x2="29.5"
       y2="16" />
  </defs>
  <sodipodi:namedview
     id="namedview292"
     pagecolor="#ffffff"
     bordercolor="#000000"
     borderopacity="0.25"
     inkscape:showpageshadow="2"
     inkscape:pageopacity="0.0"
     inkscape:pagecheckerboard="0"
     inkscape:deskcolor="#d1d1d1"
     showgrid="false"
     inkscape:zoom="24.25"
     inkscape:cx="16.082474"
     inkscape:cy="16.041237"
     inkscape:window-width="1920"
     inkscape:window-height="974"
     inkscape:window-x="-11"
     inkscape:window-y="-11"
     inkscape:window-maximized="1"
     inkscape:current-layer="svg290" />
  <title
     id="title276">folder_type_db_opened</title>
  <path
     d="M 27.4,5.5 H 18.2 L 16.1,9.7 H 4.3 v 16.8 h 25.2 v -21 z m 0,18.7 H 6.6 V 11.8 h 20.8 z m 0,-14.5 h -8.2 l 1,-2.1 h 7.1 v 2.1 z"
     style="fill:url(#linearGradient14496);fill-opacity:1"
     id="path278" />
  <polygon
     points="4.3,26.5 29.5,26.5 25.7,13.7 0.5,13.7 "
     style="fill:url(#linearGradient14498);fill-opacity:1"
     id="polygon280" />
  <path
     d="M17.822,19.942a15.869,15.869,0,0,0,5.578.895,15.869,15.869,0,0,0,5.578-.9c1.4-.545,1.894-1.151,1.894-1.5V15.775a7.768,7.768,0,0,1-1.563.807,16.72,16.72,0,0,1-5.909.977,16.77,16.77,0,0,1-5.909-.975,7.71,7.71,0,0,1-1.563-.809v2.663C15.928,18.793,16.425,19.4,17.822,19.942Z"
     style="fill:url(#radialGradient30826);fill-opacity:1"
     id="path282" />
  <path
     d="M17.822,24.971a11.708,11.708,0,0,0,1.95.556,19.567,19.567,0,0,0,7.257,0,11.711,11.711,0,0,0,1.95-.556c1.4-.545,1.894-1.151,1.894-1.5V20.929a8.029,8.029,0,0,1-1.269.619,17.617,17.617,0,0,1-6.2,1.007,17.618,17.618,0,0,1-6.2-1.011,8.122,8.122,0,0,1-1.269-.619V23.47C15.928,23.82,16.425,24.423,17.822,24.971Z"
     style="fill:url(#radialGradient30842);fill-opacity:1"
     id="path284" />
  <path
     d="M23.4,31c4.125,0,7.472-1.308,7.472-2.921V25.952a7.875,7.875,0,0,1-1.151.571l-.118.047a17.615,17.615,0,0,1-6.2,1.013,17.566,17.566,0,0,1-6.2-1.013c-.04-.015-.079-.032-.118-.047a7.875,7.875,0,0,1-1.151-.571V28.08C15.928,29.692,19.275,31,23.4,31Z"
     style="fill:url(#radialGradient30834);fill-opacity:1"
     id="path286" />
  <ellipse
     cx="23.4"
     cy="12.921"
     rx="7.472"
     ry="2.921"
     style="fill:url(#radialGradient18421);fill-opacity:1"
     id="ellipse288" />
  <metadata
     id="metadata14963">
    <rdf:RDF>
      <cc:Work
         rdf:about="">
        <dc:title>folder_type_db_opened</dc:title>
      </cc:Work>
    </rdf:RDF>
  </metadata>
</svg>
