<?xml version="1.0" encoding="UTF-8" standalone="no"?>
<svg
   viewBox="0 0 32 32"
   version="1.1"
   id="svg12"
   sodipodi:docname="chen_yefet_src_folder.svg"
   inkscape:version="1.2.2 (732a01da63, 2022-12-09)"
   xmlns:inkscape="http://www.inkscape.org/namespaces/inkscape"
   xmlns:sodipodi="http://sodipodi.sourceforge.net/DTD/sodipodi-0.dtd"
   xmlns:xlink="http://www.w3.org/1999/xlink"
   xmlns="http://www.w3.org/2000/svg"
   xmlns:svg="http://www.w3.org/2000/svg"
   xmlns:rdf="http://www.w3.org/1999/02/22-rdf-syntax-ns#"
   xmlns:cc="http://creativecommons.org/ns#"
   xmlns:dc="http://purl.org/dc/elements/1.1/">
  <defs
     id="defs16">
    <linearGradient
       inkscape:collect="always"
       id="linearGradient904">
      <stop
         style="stop-color:#ff00dd;stop-opacity:1;"
         offset="0"
         id="stop900" />
      <stop
         style="stop-color:#d600b8;stop-opacity:1;"
         offset="1"
         id="stop902" />
    </linearGradient>
    <linearGradient
       inkscape:collect="always"
       id="linearGradient896">
      <stop
         style="stop-color:#ff00dd;stop-opacity:1;"
         offset="0"
         id="stop892" />
      <stop
         style="stop-color:#d600b8;stop-opacity:1;"
         offset="0.6410256"
         id="stop894" />
    </linearGradient>
    <linearGradient
       inkscape:collect="always"
       id="linearGradient888">
      <stop
         style="stop-color:#d600b8;stop-opacity:1;"
         offset="0"
         id="stop886" />
      <stop
         style="stop-color:#ff00dd;stop-opacity:1;"
         offset="1"
         id="stop884" />
    </linearGradient>
    <linearGradient
       inkscape:collect="always"
       id="linearGradient880">
      <stop
         style="stop-color:#aa00ff;stop-opacity:1;"
         offset="0"
         id="stop878" />
      <stop
         style="stop-color:#340048;stop-opacity:1;"
         offset="0.68518513"
         id="stop58846" />
      <stop
         style="stop-color:#aa00ff;stop-opacity:1;"
         offset="1"
         id="stop876" />
    </linearGradient>
    <linearGradient
       inkscape:collect="always"
       xlink:href="#linearGradient888"
       id="linearGradient890"
       x1="23.626279"
       y1="22.739489"
       x2="30.998524"
       y2="22.739489"
       gradientUnits="userSpaceOnUse" />
    <linearGradient
       inkscape:collect="always"
       xlink:href="#linearGradient904"
       id="linearGradient906"
       x1="10.00427"
       y1="22.745062"
       x2="17.374138"
       y2="22.745062"
       gradientUnits="userSpaceOnUse"
       spreadMethod="reflect" />
    <radialGradient
       inkscape:collect="always"
       xlink:href="#linearGradient896"
       id="radialGradient16955"
       cx="20.502804"
       cy="22.739595"
       fx="20.502804"
       fy="22.739595"
       r="2.3120401"
       gradientTransform="matrix(1,0,0,3.5680194,0,-58.395725)"
       gradientUnits="userSpaceOnUse" />
    <linearGradient
       inkscape:collect="always"
       xlink:href="#linearGradient880"
       id="linearGradient44867"
       x1="4.4000001"
       y1="16"
       x2="29.6"
       y2="16"
       gradientUnits="userSpaceOnUse" />
  </defs>
  <sodipodi:namedview
     id="namedview14"
     pagecolor="#ffffff"
     bordercolor="#000000"
     borderopacity="0.25"
     inkscape:showpageshadow="2"
     inkscape:pageopacity="0.0"
     inkscape:pagecheckerboard="0"
     inkscape:deskcolor="#d1d1d1"
     showgrid="false"
     inkscape:zoom="24.25"
     inkscape:cx="6.9484536"
     inkscape:cy="16"
     inkscape:window-width="1920"
     inkscape:window-height="974"
     inkscape:window-x="-11"
     inkscape:window-y="-11"
     inkscape:window-maximized="1"
     inkscape:current-layer="svg12" />
  <title
     id="title2">folder_type_src</title>
  <path
     d="M 27.5,5.5 H 18.2 L 16.1,9.7 H 4.4 v 16.8 h 25.2 v -21 z m 0,4.2 h -8.2 l 1.1,-2.1 h 7.1 z"
     style="mix-blend-mode:normal;fill:url(#linearGradient44867);fill-opacity:1"
     id="path4" />
  <path
     d="M19.146,30.989a.9.9,0,0,1-.207-.025,1.041,1.041,0,0,1-.726-1.213L20.922,15.32a1.037,1.037,0,0,1,.444-.683.894.894,0,0,1,.7-.122,1.043,1.043,0,0,1,.727,1.213L20.077,30.16a1.033,1.033,0,0,1-.442.681A.9.9,0,0,1,19.146,30.989Z"
     style="fill:url(#radialGradient16955);fill-opacity:1"
     id="path6" />
  <path
     d="M24.578,28.944l-.068,0a.931.931,0,0,1-.668-.377,1.1,1.1,0,0,1,.1-1.419L28.6,22.595l-4.638-4.239a1.1,1.1,0,0,1-.141-1.416.937.937,0,0,1,.661-.4.9.9,0,0,1,.709.237l5.47,5a1.1,1.1,0,0,1,.144,1.416,1.061,1.061,0,0,1-.142.163L25.216,28.68A.916.916,0,0,1,24.578,28.944Z"
     style="fill:url(#linearGradient890);fill-opacity:1"
     id="path8" />
  <path
     d="M16.423,28.947a.914.914,0,0,1-.639-.267l-5.452-5.327A.9.9,0,0,1,10.2,23.2a1.094,1.094,0,0,1,.141-1.414l5.471-5a.881.881,0,0,1,.7-.238.941.941,0,0,1,.665.4,1.1,1.1,0,0,1-.14,1.417L12.4,22.6l4.659,4.551a1.093,1.093,0,0,1,.1,1.419.927.927,0,0,1-.669.377Z"
     style="fill:url(#linearGradient906);fill-opacity:1"
     id="path10" />
  <metadata
     id="metadata1999">
    <rdf:RDF>
      <cc:Work
         rdf:about="">
        <dc:title>folder_type_src</dc:title>
      </cc:Work>
    </rdf:RDF>
  </metadata>
</svg>
